# xmcd CD database file
# Copyright (C) 1995 Ti Kan
#
# Track frame offsets:
#	150
#	18367
#	33917
#	49172
#	63350
#	79240
#	93925
#	108925
#	126172
#	145027
#
# Disc length: 2148 seconds
#
# Revision: 1
# Processed by: cddbd v1.5.1PL0 Copyright (c) Steve Scherf et al.
# Submitted via: xmcd 1.4
#
DISCID=7a08620a
DTITLE=Kate Wallace
DYEAR=1995
DGENRE=Country
TTITLE0=Hard Woman To Love
TTITLE1=Two Of A Kind
TTITLE2=Dancin' On The Edge Of A Heartache
TTITLE3=Saving It All For You
TTITLE4=What Kind Of Love (Have I Fallen In)
TTITLE5=Every Time Love Falls Apart
TTITLE6=Bill's Old Truck
TTITLE7=Going Through The Emotions
TTITLE8=Whisper Something Sweet
TTITLE9=Give It A Push
EXTD=
EXTT0=
EXTT1=
EXTT2=
EXTT3=
EXTT4=
EXTT5=
EXTT6=
EXTT7=
EXTT8=
EXTT9=
PLAYORDER=
